<?xml version="1.0" encoding="UTF-8"?>
<!-- Generator: Adobe Illustrator 21.0.1, SVG Export Plug-In . SVG Version: 6.00 Build 0)  -->
<svg version="1.1" id="Layer_1" xmlns="http://www.w3.org/2000/svg" xmlns:xlink="http://www.w3.org/1999/xlink" x="0px" y="0px" viewBox="0 0 692.7 121.4" style="enable-background:new 0 0 692.7 121.4;" xml:space="preserve">
<style type="text/css">
	.st0{fill:#F9FAFB;}
	.st1{fill:#CFD0D0;}
	.st2{fill:#7D7E7E;}
	.st3{fill:#070A0A;}
	.st4{fill:#1D90CD;}
	.st5{fill:#FCFCFC;}
	.st6{fill:#FAFAFA;}
	.st7{fill:#FBFBFB;}
	.st8{fill:#060E11;}
	.st9{fill:#1C8FCA;}
</style>
<g>
	<g>
		<path class="st0" d="M340,121.6c0.7,0.3,1.3,0.2,1.9,0.2c116.4,0,232.8,0,349.2,0c1.9,0,1.7,0.2,1.7-1.6c0-39.3,0-78.6,0-117.9    c0-3.1,0-3.1-3.1-3.1c-114.3,0-228.7,0-343,0c-0.8,0-1.5,0-2.3,0c0,0.1,0,0.2,0,0.3c1.3,0.2,2.6,0.2,3.9,0.5    c16.7,3.9,28.2,13.8,34.6,29.7c1.9,4.7,2.4,9.7,3,14.6c1.2,9.6,0.8,19-1.9,28.2c-6.5,22.3-20.1,38.4-41.6,47.7    C341.5,120.6,340.6,120.8,340,121.6z M310.4,108.6c4.2,0,7.9-0.3,11.7-1.1c15.9-3.3,28.8-11.2,37.7-24.9    c6.8-10.5,9.2-21.9,6.6-34.2c-2.2-10.2-7.7-18.4-16.1-24.5c-11.6-8.6-24.7-11.4-38.9-9.8c-12.4,1.4-23.5,6.1-32.7,14.7    c-11.5,10.6-17.8,23.5-16.7,39.5c0.4,5.5,2,10.7,4.5,15.6c2.5,5,6.1,9.2,10.3,12.8c3.9,3.3,8.2,6,13,7.9    C296.5,107.3,303.5,108.8,310.4,108.6z"/>
		<path class="st1" d="M0-0.9C0-1,0-1.1,0-1.1c98.9,0,197.9,0,296.8,0c0,0.1,0,0.2,0,0.3c-0.4,0-0.8,0-1.2,0    c-98.1,0-196.1,0-294.2,0C0.9-0.8,0.5-0.8,0-0.9z"/>
		<path class="st2" d="M340,121.6c0.6-0.8,1.5-1,2.3-1.4c21.4-9.3,35-25.4,41.6-47.7c2.7-9.2,3.2-18.7,1.9-28.2    c-0.6-5-1.2-9.9-3-14.6c-6.3-16-17.9-25.8-34.6-29.7c-1.3-0.3-2.6-0.4-3.9-0.5c0-0.1,0-0.2,0-0.3c0.8,0,1.5,0,2.3,0    c114.3,0,228.7,0,343,0c3.1,0,3.1,0,3.1,3.1c0,39.3,0,78.6,0,117.9c0,1.9,0.2,1.6-1.7,1.6c-116.4,0-232.8,0-349.2,0    C341.3,121.8,340.6,121.9,340,121.6z M584.8,105.5c4.8,0,9.6,0,14.4,0c1.6,0,1.7-0.2,1.1-1.6c-5.8-12-11.3-24.1-17-36.2    c-7.5-15.9-15-31.8-22.5-47.7c-0.5-1.1-1.2-1.5-2.4-1.5c-11.8,0-23.5,0-35.3,0c-1.4,0-2,0.5-2.5,1.7c-2.7,6.1-5.5,12.1-8.3,18.2    c-10,21.8-20,43.6-30,65.4c-0.7,1.6-0.7,1.7,1,1.7c8,0,16,0,24,0c1.2,0,2.5,0.1,3.7,0.1c1,0,1.8-0.4,2.2-1.5    c2.6-6.5,5.3-12.9,7.9-19.4c0.4-0.9,0.9-1.3,1.9-1.3c11.3,0,22.7,0,34,0c1.2,0,1.9,0.4,2.4,1.5c2.9,6.3,5.8,12.6,8.7,18.9    c0.6,1.3,1.3,1.7,2.7,1.6C575.4,105.5,580.1,105.5,584.8,105.5z M430,107.3c4.9,0.1,12.1-0.4,19.3-1.6c6.3-1,12.4-2.6,18-5.8    c7.1-4.2,12.9-9.3,13.4-18.5c0.2-4.6-0.5-8.6-3.4-12.3c-3.6-4.7-8.4-7.6-13.7-9.9c-8.1-3.5-16.8-5.3-25.4-7.5    c-4.4-1.1-8.8-2.4-12.6-4.9c-3.8-2.5-3.9-7-0.3-9.7c3.3-2.5,7.1-3.4,11.1-3.6c6.7-0.3,13.3-0.1,19.9,1c3.7,0.6,7.5,1.2,11.1,2.6    c1.4,0.5,1.5,0.5,2.1-0.9c1.7-4.3,3.4-8.6,5.1-12.9c0.7-1.8,0.7-2-1.2-2.5c-7.8-2.3-15.9-3.1-24-3.5c-6.6-0.3-13.2,0.3-19.7,0.6    c-9.5,0.4-18.2,3.5-26.3,8.3c-2.6,1.6-5.1,3.3-7.1,5.6c-2.8,3.2-3.3,7.3-3.8,11.3c-0.6,4.6,1.7,8.3,4.8,11.5    c4.8,5,10.7,8.2,17.3,10.4c7.1,2.3,14.4,3.7,21.6,5.7c4.1,1.2,8.1,2.7,11.6,5.2c2,1.4,3.1,3.2,3.1,5.7c0,3.6-2.1,5.6-5,7.2    c-4.1,2.2-8.6,2.6-13.1,2.7c-5.7,0.1-11.4-0.7-17-1.5c-6.1-0.9-12.1-1.8-17.9-4.1c-0.8-0.3-1.2-0.1-1.5,0.7    c-1.7,4.7-3.4,9.4-5.1,14.1c-0.3,1,0,1.4,0.9,1.7c1.9,0.6,3.7,1.2,5.6,1.6C407.6,106.5,417.6,107.3,430,107.3z M631.5,18.6    c-16.2,0-32.4,0-48.7,0c-1.6,0-1.7,0.1-1.7,1.7c0,4.5,0,8.9,0,13.4c0,1.9,0.1,2,2,2c10.5,0,21,0,31.5,0c2,0,2,0,2,2    c0,22.1,0,44.3,0,66.4c0,1.9,0,1.9,1.9,1.9c8.5,0,17.1,0,25.6,0c1.8,0,1.8,0,1.8-1.8c0-22.1,0-44.3,0-66.4c0-2,0.1-2.2,2.2-2.2    c10.6,0,21.3,0,31.9,0c1.6,0,1.6-0.1,1.6-1.6c0-4.5,0-8.9,0-13.4c0-2.1,0-2.1-2-2.1C663.6,18.6,647.5,18.6,631.5,18.6z"/>
		<path class="st3" d="M0-0.9c0.5,0,0.9,0.1,1.4,0.1c98.1,0,196.1,0,294.2,0c0.4,0,0.8,0,1.2,0c0.2,0.3,0.1,0.4-0.2,0.4    c-13.6,2.1-25.4,8.2-35.3,17.5c-11.6,10.9-19,24.3-21.8,40.1c-2.2,12.2-0.2,24,5.2,35.1c6.4,13.2,16.5,22.6,29.9,28.5    c0.4,0.2,0.9,0.4,1.3,0.6c0,0.5-0.4,0.4-0.7,0.4c-0.3,0-0.7,0-1,0c-91.2,0-182.4,0-273.6,0c-1.2,0-1.6-0.2-1.6-1.6    C-1,80.3-1,40.4-1,0.5C-1-0.1-1.2-1,0-0.9z M112.2,55.8c-4.7,0-9.3,0-14,0c-3,0-5.9,0-8.9,0c-1.5,0-1.8,0.3-1.8,1.8    c0,2,0.1,4,0.1,6c0,2.1,0,4.3,0,6.4c0,1.1,0.4,1.6,1.5,1.7c0.5,0,0.9,0,1.4,0c5.4,0,10.8,0,16.3,0c1.1,0,1.5,0.3,1.4,1.4    c-0.1,5-0.1,10.1,0,15.1c0,1.1-0.4,1.6-1.5,1.8c-4.3,0.8-8.7,1.1-13,1.3c-9.6,0.3-18.6-1.6-27.1-6.1c-3.9-2.1-7.5-4.7-10.1-8.4    c-3.9-5.2-4.6-11.2-3.8-17.5c0.9-6.7,4-12.1,9.6-16c4-2.8,8.5-5,13.2-6.3c9.7-2.7,19.6-3.4,29.7-2.8c6.9,0.5,13.7,1.5,20.4,3.6    c0.9,0.3,1.2-0.3,1.4-1c1.7-4.5,3.4-8.9,5.1-13.4c0.4-1,0.2-1.5-0.9-1.8c-7-1.6-14-2.7-21.1-3.3c-10.3-0.9-20.6-0.8-30.8,0.2    c-11.7,1.1-23,4.1-33.6,9.2c-5.5,2.7-10.6,5.9-14.7,10.6C25.2,45,22.2,53,21.4,61.7c-0.9,9.9,2.1,18.6,9,25.7    c7.3,7.6,16.4,12.5,26.5,15.2c9.6,2.6,19.5,3.9,29.5,4.4c8.1,0.4,16.2,0.3,24.3-0.7c8.2-1,16.3-2.2,24.4-4.1    c1.8-0.4,1.9-0.4,1.9-2.3c0-14.1,0-28.3,0-42.4c0-1.7-0.1-1.8-1.8-1.9C127.3,55.8,119.7,55.8,112.2,55.8z M150.4,62.2    c0,13.8,0,27.7,0,41.5c0,1.9,0,1.9,1.8,1.9c26.4,0,52.8,0,79.2,0c1.7,0,1.8-0.1,1.8-1.7c-0.1-4.1-0.1-8.2,0-12.4    c0-2.1,0-2.1-2.1-2.1c-16.4,0-32.8,0-49.2,0c-1.8,0-2-0.1-1.9-1.9c0.1-5.6,0.1-11.2,0-16.8c0-2,0.1-2.1,2.1-2.1    c14.6,0,29.3,0,43.9,0c1.6,0,1.8-0.3,1.8-1.9c-0.1-3.8-0.1-7.6,0-11.4c0-2,0-2.2-2-2.2c-14.5,0-29,0.1-43.5,0.1    c-2,0-2.2-0.2-2.2-2.2c0-4.9,0.1-9.8,0.1-14.6c0-1.8,0-1.8,1.9-1.8c15.6,0,31.3,0,46.9,0c1.8,0,1.8,0,1.8-1.8c0-4.1,0-8.2,0-12.3    c0-2.1,0-2.1-2.1-2.1c-25.4,0-50.7,0-76.1,0c-2.2,0-2.2,0-2.2,2.3C150.4,34.6,150.4,48.4,150.4,62.2z"/>
		<path class="st4" d="M310.4,108.6c-6.9,0.2-13.9-1.3-20.5-4c-4.8-1.9-9.1-4.6-13-7.9c-4.3-3.6-7.8-7.8-10.3-12.8    c-2.5-4.9-4.1-10.1-4.5-15.6c-1.2-16,5.2-28.9,16.7-39.5c9.2-8.5,20.3-13.3,32.7-14.7c14.2-1.6,27.3,1.2,38.9,9.8    c8.4,6.2,13.9,14.4,16.1,24.5c2.7,12.3,0.3,23.7-6.6,34.2c-8.9,13.7-21.8,21.6-37.7,24.9C318.3,108.3,314.5,108.7,310.4,108.6z     M356.2,76c0.3-1.8,0.5-3.2-0.8-4.5c-0.9-0.8-1.8-1.8-2.7-2.6c-1.7-1.5-3.7-2.5-6-2.9c-0.9-0.1-2,0.4-2.6-0.4s0-1.8,0.1-2.7    c0.5-3.8,0.1-7.5,0-11.2c0-1,0.3-1.4,1.3-1.3c0.4,0,0.8,0,1.1,0.1c4.4,1,8.7,2,12.4,4.6c0.5,0.3,1.1,0.8,1.7,0.2s0.1-1.2-0.2-1.7    c-1-1.6-2.5-2.7-4.1-3.6c-3.6-1.8-7.3-3.7-11.4-4.2c-1-0.1-1.8-0.7-2.1-1.7c-0.9-3.2-1.8-6.3-2.7-9.5c-0.4-1.3,0-1.7,1.3-1.5    c1.5,0.2,3.1,0.4,4.5,1c3.3,1.2,6.9,1.6,9.7,4c0.4,0.3,0.9,0.4,1.2,0c0.4-0.4,0.3-0.9,0-1.4c-0.7-1.3-1.9-2.2-3.2-2.9    c-5.1-3.1-10.8-4.4-16.4-6c-0.9-0.2-1.6-0.6-2.2-1.3c-1.1-1.4-2.3-2.8-3.5-4.2c-0.8-0.9-1.8-1.6-2.9-2.1c-0.6-0.2-1.1-0.2-1.5,0.3    s-0.3,1,0,1.5c0.3,0.4,0.6,0.7,0.9,1.1c0.9,1.1,1.7,2.2,2.6,3.4c0.1,0.2,0.3,0.4,0.1,0.7c-0.1,0.2-0.4,0.3-0.5,0.2    c-1.8-1-3.6-0.1-5.4-0.1c-4.1,0-8.1,0.8-11.9,2.4c-1.6,0.7-1.9,0.4-1.9-1.3c-0.1-2.5,0.4-5,0.6-7.5c0-0.5,0.2-1-0.4-1.1    c-0.6-0.2-1,0.1-1.2,0.7c-0.2,0.4-0.3,0.9-0.4,1.3c-0.6,2.5-0.5,5-0.7,7.5c-0.1,1-0.3,1.8-1.5,2c-2.8,0.4-5.4,1.3-8.1,2.2    c-1.9,0.6-3.7,1.6-5.1,3.1c-1.2,1.2-2.6,2-4.3,2.4c-0.9,0.2-1.3-0.2-1-1.1c0.4-1.1,0.9-2.2,1.2-3.3c0.2-0.7,1.2-1.5,0.3-2.1    c-1-0.6-1.4,0.7-2,1.2c-0.1,0.1-0.1,0.2-0.2,0.3c-1.1,1.9-2.3,3.7-3.3,5.7c-0.5,1.1-1.2,2.1-2.3,2.7c-4,2.2-6.9,5.7-10,9    c-0.1,0.1-0.2,0.3-0.3,0.5c-0.2,0.5-0.2,0.9,0.2,1.2c0.4,0.3,0.9,0.3,1.3,0c0.3-0.2,0.5-0.4,0.7-0.7c1.7-2.4,4.2-3.9,6.4-5.7    c0.7-0.5,1.5-1,2.3-1.3c0.5-0.2,0.9-0.2,1.3,0.2c0.4,0.3,0.5,0.8,0.3,1.3c-0.8,2-0.9,4.1-1,6.1c-0.1,2.7-1.2,4.6-3.6,6.3    c-4.6,3.3-8.9,7-10.6,12.8c-0.2,0.8-0.8,1.5-0.8,2.4c0,0.5-0.4,1.2,0.4,1.5c0.7,0.3,1.2-0.2,1.5-0.8c0.5-0.8,1-1.6,1.5-2.4    c2.4-3.5,5.2-6.6,8.8-9c1.6-1.1,2.4-0.6,2.5,1.3c0,1,0.3,1.9,0.7,2.8c0.8,1.7,1.3,3.4,1.5,5.3c0.4,2.8,0.3,5.4-1.9,7.6    c-1.4,1.4-2.3,3.3-3.6,4.8c-0.3,0.3-0.4,0.7-0.1,1s0.6,0.1,0.8-0.2c1.5-2.2,4-2.8,6.2-3.8c0.9-0.4,1.6-0.2,2.1,0.7    c1.5,2.9,3.9,5.2,4.9,8.4c0.1,0.3,0.3,0.6,0.7,0.5c0.4-0.1,0.5-0.4,0.4-0.8c-0.4-1.7-0.7-3.5-1.9-5c-0.8-1-1.5-2.2-2.2-3.3    c-1.1-1.7-0.8-2.7,1-3.6c1.5-0.7,3.1-1.4,4.7-2.1c3.8-1.7,7.8-3.2,11.9-4.1c0.9-0.2,1.7-0.1,2,0.9c0.3,1.1,0.5,2.2,0.6,3.3    c0.2,5.9,1.9,11.6,3.7,17.1c0.4,1.1,1,2,1.9,2.7c0.3,0.3,0.7,0.7,1.2,0.3c0.4-0.3,0.2-0.8,0-1.1c-0.3-0.6-0.6-1.3-0.9-1.9    c-1.6-3.6-1.9-7.5-2.5-11.3c-0.5-3.4-1.1-6.8-0.9-10.3c0.1-1,0.4-1.4,1.5-1.6c2.9-0.6,5.9-0.6,8.8-1.1c3.7-0.6,7.4-1.3,11.2-1.3    c2,0,2.4,0.4,1.7,2.3c-1.6,4.4-3.1,8.8-4.8,13.1c-1.4,3.6-2.6,7.3-5.3,10.2c-0.6,0.7-0.7,1.7,0,2.4c0.7,0.7,1.4,0,2-0.5    c2.2-1.7,3.7-4.1,4.7-6.6c2.6-6.4,5.7-12.5,8-19c0.4-1.1,1-1.3,2.1-1C348.4,71,352.8,72.3,356.2,76z"/>
		<path class="st5" d="M584.8,105.5c-4.7,0-9.3,0-14,0c-1.4,0-2.1-0.4-2.7-1.6c-2.9-6.3-5.8-12.6-8.7-18.9c-0.5-1.1-1.1-1.5-2.4-1.5    c-11.3,0-22.7,0-34,0c-1,0-1.5,0.4-1.9,1.3c-2.6,6.5-5.3,12.9-7.9,19.4c-0.4,1.1-1.1,1.5-2.2,1.5c-1.2,0-2.5-0.1-3.7-0.1    c-8,0-16,0-24,0c-1.7,0-1.8,0-1-1.7c10-21.8,20-43.6,30-65.4c2.8-6.1,5.5-12.1,8.3-18.2c0.5-1.2,1.2-1.7,2.5-1.7    c11.8,0,23.5,0,35.3,0c1.2,0,1.9,0.4,2.4,1.5c7.5,15.9,15,31.8,22.5,47.7c5.7,12.1,11.2,24.2,17,36.2c0.7,1.4,0.6,1.6-1.1,1.6    C594.4,105.5,589.6,105.5,584.8,105.5z M540.1,69c1.2,0,2.4,0,3.6,0c2.9,0,5.8,0,8.8,0c1.4,0,1.5-0.2,0.9-1.5    c-0.3-0.8-0.6-1.5-0.9-2.3c-4.1-10.1-8.3-20.2-12.4-30.3c-0.1-0.4-0.2-0.9-0.7-0.9c-0.4,0-0.4,0.5-0.5,0.8    c-4,10.8-8.1,21.5-12.1,32.3c-0.6,1.6-0.4,1.9,1.3,1.9C532.1,69,536.1,69,540.1,69z"/>
		<path class="st5" d="M430,107.3c-12.5,0-22.4-0.8-32.2-3.3c-1.9-0.5-3.8-1.1-5.6-1.6c-0.9-0.3-1.2-0.7-0.9-1.7    c1.7-4.7,3.4-9.4,5.1-14.1c0.3-0.8,0.6-1,1.5-0.7c5.8,2.2,11.8,3.2,17.9,4.1c5.6,0.8,11.3,1.6,17,1.5c4.5-0.1,9-0.5,13.1-2.7    c2.9-1.5,5-3.6,5-7.2c0-2.5-1.2-4.3-3.1-5.7c-3.5-2.4-7.5-4-11.6-5.2c-7.2-2-14.5-3.4-21.6-5.7c-6.6-2.1-12.5-5.3-17.3-10.4    c-3.1-3.2-5.3-6.9-4.8-11.5c0.5-4,1-8.1,3.8-11.3c2-2.3,4.5-4.1,7.1-5.6c8.1-4.8,16.7-7.9,26.3-8.3c6.6-0.3,13.1-0.9,19.7-0.6    c8.1,0.4,16.2,1.2,24,3.5c1.9,0.5,1.9,0.7,1.2,2.5c-1.7,4.3-3.4,8.6-5.1,12.9c-0.6,1.4-0.7,1.5-2.1,0.9c-3.6-1.3-7.3-1.9-11.1-2.6    c-6.6-1.1-13.3-1.4-19.9-1c-4,0.2-7.8,1.1-11.1,3.6c-3.6,2.8-3.4,7.3,0.3,9.7c3.9,2.5,8.2,3.8,12.6,4.9c8.5,2.2,17.2,3.9,25.4,7.5    c5.3,2.3,10.1,5.2,13.7,9.9c2.8,3.7,3.6,7.7,3.4,12.3c-0.5,9.2-6.2,14.4-13.4,18.5c-5.5,3.2-11.7,4.8-18,5.8    C442.1,106.9,434.9,107.4,430,107.3z"/>
		<path class="st5" d="M631.5,18.6c16.1,0,32.1,0,48.2,0c2,0,2,0,2,2.1c0,4.5,0,8.9,0,13.4c0,1.5-0.1,1.6-1.6,1.6    c-10.6,0-21.3,0-31.9,0c-2.1,0-2.2,0.1-2.2,2.2c0,22.1,0,44.3,0,66.4c0,1.8,0,1.8-1.8,1.8c-8.5,0-17.1,0-25.6,0    c-1.9,0-1.9,0-1.9-1.9c0-22.1,0-44.3,0-66.4c0-2,0-2-2-2c-10.5,0-21,0-31.5,0c-1.9,0-2-0.1-2-2c0-4.5,0-8.9,0-13.4    c0-1.6,0.1-1.7,1.7-1.7C599,18.6,615.2,18.6,631.5,18.6z"/>
		<path class="st6" d="M112.2,55.8c7.6,0,15.2,0,22.8,0c1.7,0,1.8,0.1,1.8,1.9c0,14.1,0,28.3,0,42.4c0,1.9,0,1.8-1.9,2.3    c-8,1.9-16.2,3.1-24.4,4.1c-8.1,1-16.2,1.1-24.3,0.7c-10-0.5-19.8-1.9-29.5-4.4c-10.2-2.7-19.2-7.6-26.5-15.2    c-6.9-7.1-9.9-15.8-9-25.7c0.8-8.7,3.8-16.7,9.6-23.4c4.1-4.7,9.1-7.9,14.7-10.6c10.7-5.1,21.9-8.1,33.6-9.2    c10.3-1,20.6-1.1,30.8-0.2c7.1,0.6,14.1,1.7,21.1,3.3c1.1,0.3,1.3,0.7,0.9,1.8c-1.7,4.4-3.4,8.9-5.1,13.4c-0.2,0.7-0.5,1.2-1.4,1    c-6.6-2.1-13.4-3.1-20.4-3.6c-10.1-0.7-20,0.1-29.7,2.8c-4.7,1.3-9.2,3.5-13.2,6.3c-5.6,3.9-8.7,9.2-9.6,16    c-0.8,6.3-0.1,12.2,3.8,17.5c2.7,3.6,6.2,6.2,10.1,8.4c8.4,4.6,17.5,6.5,27.1,6.1c4.4-0.1,8.7-0.5,13-1.3c1.1-0.2,1.5-0.7,1.5-1.8    c0-5-0.1-10.1,0-15.1c0-1.1-0.4-1.4-1.4-1.4c-5.4,0-10.8,0-16.3,0c-0.5,0-0.9,0-1.4,0c-1.1,0-1.5-0.6-1.5-1.7c0-2.1,0-4.3,0-6.4    c0-2,0-4-0.1-6c0-1.5,0.3-1.8,1.8-1.8c3,0,5.9,0,8.9,0C102.8,55.8,107.5,55.8,112.2,55.8z"/>
		<path class="st7" d="M150.4,62.2c0-13.8,0-27.5,0-41.3c0-2.2,0-2.3,2.2-2.3c25.4,0,50.7,0,76.1,0c2.1,0,2.1,0,2.1,2.1    c0,4.1,0,8.2,0,12.3c0,1.8,0,1.8-1.8,1.8c-15.6,0-31.3,0-46.9,0c-1.9,0-1.9,0-1.9,1.8c0,4.9-0.1,9.8-0.1,14.6c0,2,0.2,2.2,2.2,2.2    c14.5,0,29-0.1,43.5-0.1c2,0,2,0.1,2,2.2c0,3.8,0,7.6,0,11.4c0,1.6-0.2,1.9-1.8,1.9c-14.6,0-29.3,0-43.9,0c-2,0-2.2,0.1-2.1,2.1    c0.1,5.6,0.1,11.2,0,16.8c0,1.8,0.1,1.9,1.9,1.9c16.4,0,32.8,0,49.2,0c2.1,0,2.2,0,2.1,2.1c-0.1,4.1-0.1,8.2,0,12.4    c0,1.7-0.1,1.7-1.8,1.7c-26.4,0-52.8,0-79.2,0c-1.8,0-1.8,0-1.8-1.9C150.4,89.9,150.4,76,150.4,62.2z"/>
		<path class="st8" d="M356.2,76c-3.4-3.7-7.8-5-12.2-6.3c-1.1-0.3-1.7-0.1-2.1,1c-2.3,6.5-5.4,12.6-8,19c-1,2.6-2.5,4.9-4.7,6.6    c-0.6,0.4-1.2,1.2-2,0.5c-0.7-0.7-0.6-1.7,0-2.4c2.7-2.9,4-6.6,5.3-10.2c1.6-4.4,3.2-8.8,4.8-13.1c0.7-1.9,0.3-2.3-1.7-2.3    c-3.8,0-7.4,0.7-11.2,1.3c-2.9,0.4-5.9,0.5-8.8,1.1c-1,0.2-1.4,0.6-1.5,1.6c-0.2,3.5,0.3,6.9,0.9,10.3c0.6,3.8,0.9,7.7,2.5,11.3    c0.3,0.6,0.6,1.3,0.9,1.9c0.2,0.4,0.3,0.8,0,1.1c-0.5,0.4-0.9,0-1.2-0.3c-0.9-0.7-1.5-1.7-1.9-2.7c-1.8-5.6-3.5-11.2-3.7-17.1    c0-1.1-0.3-2.2-0.6-3.3c-0.3-1.1-1-1.1-2-0.9c-4.2,0.8-8.1,2.3-11.9,4.1c-1.6,0.7-3.1,1.4-4.7,2.1c-1.9,0.9-2.1,1.8-1,3.6    c0.7,1.1,1.4,2.3,2.2,3.3c1.2,1.5,1.5,3.2,1.9,5c0.1,0.4,0,0.7-0.4,0.8c-0.4,0.1-0.6-0.2-0.7-0.5c-1-3.2-3.3-5.5-4.9-8.4    c-0.5-0.9-1.2-1.1-2.1-0.7c-2.2,1-4.7,1.6-6.2,3.8c-0.2,0.3-0.5,0.5-0.8,0.2c-0.4-0.3-0.2-0.7,0.1-1c1.4-1.5,2.2-3.3,3.6-4.8    c2.2-2.2,2.2-4.8,1.9-7.6c-0.2-1.8-0.8-3.6-1.5-5.3c-0.4-0.9-0.6-1.8-0.7-2.8c-0.1-1.9-0.9-2.4-2.5-1.3c-3.5,2.4-6.4,5.5-8.8,9    c-0.5,0.8-1,1.6-1.5,2.4c-0.4,0.5-0.8,1.1-1.5,0.8c-0.8-0.3-0.4-1-0.4-1.5c0-0.9,0.5-1.6,0.8-2.4c1.7-5.8,6.1-9.5,10.6-12.8    c2.3-1.7,3.4-3.6,3.6-6.3c0.1-2.1,0.2-4.2,1-6.1c0.2-0.4,0.1-0.9-0.3-1.3c-0.4-0.3-0.8-0.4-1.3-0.2c-0.8,0.3-1.6,0.8-2.3,1.3    c-2.2,1.8-4.7,3.3-6.4,5.7c-0.2,0.3-0.4,0.5-0.7,0.7c-0.4,0.3-0.9,0.3-1.3,0s-0.4-0.8-0.2-1.2c0.1-0.2,0.2-0.4,0.3-0.5    c3.1-3.3,5.9-6.8,10-9c1.1-0.6,1.8-1.6,2.3-2.7c1-2,2.2-3.8,3.3-5.7c0.1-0.1,0.1-0.2,0.2-0.3c0.6-0.5,1-1.8,2-1.2    s-0.1,1.4-0.3,2.1c-0.4,1.1-0.8,2.2-1.2,3.3c-0.3,0.9,0.1,1.3,1,1.1c1.7-0.3,3.1-1.2,4.3-2.4c1.4-1.5,3.1-2.5,5.1-3.1    c2.7-0.8,5.3-1.8,8.1-2.2c1.2-0.2,1.4-1,1.5-2c0.2-2.5,0.1-5,0.7-7.5c0.1-0.4,0.2-0.9,0.4-1.3c0.2-0.5,0.6-0.9,1.2-0.7    c0.6,0.2,0.5,0.7,0.4,1.1c-0.2,2.5-0.8,4.9-0.6,7.5c0.1,1.7,0.3,2,1.9,1.3c3.8-1.6,7.8-2.4,11.9-2.4c1.8,0,3.6-0.8,5.4,0.1    c0.2,0.1,0.4,0,0.5-0.2c0.2-0.3,0.1-0.5-0.1-0.7c-0.9-1.1-1.7-2.2-2.6-3.4c-0.3-0.4-0.6-0.7-0.9-1.1c-0.3-0.5-0.5-1,0-1.5    c0.4-0.5,0.9-0.5,1.5-0.3c1.1,0.5,2.1,1.2,2.9,2.1c1.2,1.4,2.4,2.8,3.5,4.2c0.6,0.7,1.3,1.1,2.2,1.3c5.6,1.6,11.3,2.9,16.4,6    c1.3,0.8,2.4,1.6,3.2,2.9c0.3,0.5,0.4,1,0,1.4s-0.9,0.3-1.2,0c-2.8-2.4-6.4-2.9-9.7-4c-1.5-0.5-3-0.7-4.5-1    c-1.3-0.2-1.6,0.2-1.3,1.5c0.9,3.2,1.8,6.3,2.7,9.5c0.3,1.1,1.1,1.6,2.1,1.7c4.1,0.5,7.8,2.4,11.4,4.2c1.6,0.8,3.1,2,4.1,3.6    c0.3,0.5,0.8,1.1,0.2,1.7c-0.6,0.6-1.2,0.1-1.7-0.2c-3.8-2.6-8.1-3.6-12.4-4.6c-0.4-0.1-0.7-0.1-1.1-0.1c-1-0.1-1.3,0.3-1.3,1.3    c0.1,3.7,0.5,7.5,0,11.2c-0.1,0.9-0.7,1.9-0.1,2.7s1.7,0.3,2.6,0.4c2.3,0.4,4.3,1.4,6,2.9c0.9,0.8,1.8,1.7,2.7,2.6    C356.7,72.7,356.5,74.2,356.2,76z M339.3,56.7c0-1.3,0-2.4,0-3.5c0-3.5-0.4-4-4-3.7c-4.4,0.4-8.9,0.7-13.1,2.3    c-0.7,0.3-1.5,0.4-2.3,0.6c-2,0.5-4,0.4-6.1,0.5c-1.4,0.1-1.8,0.5-1.8,1.8c-0.1,3-0.1,5.9,0.2,8.9c0.2,1.5,0.6,1.9,2.1,1.5    c3.5-0.9,7-1.5,10.6-1.6c3.9-0.2,7.9-0.5,11.8,0.5c1.6,0.4,2,0.1,2.3-1.5C339.5,60.5,339.2,58.5,339.3,56.7z M311.5,41.2    c0,1.7,0,3.4,0,5.1c0,1,0.4,1.3,1.3,0.9c1.1-0.5,2.3-0.9,3.5-1c2.6-0.3,5.3-0.6,7.9-0.9c4.3-0.4,8.6-1.8,13-1.3    c1,0.1,1.3-0.4,1.2-1.3c-0.4-2.8-1.2-5.5-2.5-8.1c-1-1.9-2.4-2.3-4.3-2.2c-6.2,0.2-12.2,1.4-18.4,2c-1.1,0.1-1.7,0.7-1.7,1.9    C311.6,37.9,311.5,39.6,311.5,41.2z M309.3,61.7c0.2-1.5-0.3-3.2-0.2-4.9c0.1-1.9-0.4-2.5-2.7-1.9c-0.3,0.1-0.6,0.2-0.9,0.3    c-3.6,1.1-7.2,2.4-11,2.5c-1.7,0.1-3.2,0.7-4.7,1.3c-1.1,0.4-1.7,1.2-2,2.4c-0.4,1.7-0.5,3.3-0.3,5.1c0.3,2.4,0.9,4.7,1.4,7    c0.4,1.7,0.7,1.8,2.2,0.8c3.3-2.1,6.8-3.8,10.5-5.2c2-0.7,3.9-1.4,5.9-2.1c1.3-0.4,2-1.3,1.9-2.7    C309.3,63.4,309.3,62.7,309.3,61.7z M286.4,53.1c0,1,0.2,1.6,0.8,1.9c0.7,0.4,1.3,0.1,2-0.3c5.1-3.1,10.6-5.1,16.5-6.1    c0.9-0.2,1.6-0.6,1.6-1.6c0-3.5-0.2-7.1,0.8-10.5c0.2-0.9-0.2-1.2-1.1-1.1c-1.8,0.3-3.6,0.7-5.3,1.3c-4.4,1.6-8.4,4.2-12.8,5.9    c-1.4,0.5-2,1.8-2.1,3.2C286.6,48.4,286.9,50.9,286.4,53.1z"/>
		<path class="st2" d="M540.1,69c-4,0-8,0-12,0c-1.7,0-1.9-0.3-1.3-1.9c4-10.8,8.1-21.5,12.1-32.3c0.1-0.3,0.1-0.8,0.5-0.8    c0.5,0,0.5,0.5,0.7,0.9c4.1,10.1,8.3,20.2,12.4,30.3c0.3,0.8,0.6,1.5,0.9,2.3c0.5,1.3,0.4,1.4-0.9,1.5c-2.9,0-5.8,0-8.8,0    C542.5,69,541.3,69,540.1,69z"/>
		<path class="st9" d="M339.3,56.7c-0.1,1.8,0.2,3.8-0.2,5.8c-0.3,1.6-0.7,1.9-2.3,1.5c-3.9-0.9-7.9-0.7-11.8-0.5    c-3.6,0.2-7.1,0.7-10.6,1.6c-1.5,0.4-1.9,0-2.1-1.5c-0.3-2.9-0.3-5.9-0.2-8.9c0-1.3,0.5-1.8,1.8-1.8c2-0.1,4.1-0.1,6.1-0.5    c0.8-0.2,1.6-0.3,2.3-0.6c4.2-1.6,8.7-1.9,13.1-2.3c3.6-0.3,4,0.2,4,3.7C339.3,54.3,339.3,55.4,339.3,56.7z"/>
		<path class="st9" d="M311.5,41.2c0-1.6,0-3.3,0-4.9c0-1.2,0.6-1.8,1.7-1.9c6.1-0.6,12.2-1.8,18.4-2c1.9-0.1,3.4,0.3,4.3,2.2    c1.3,2.6,2,5.3,2.5,8.1c0.1,0.9-0.2,1.4-1.2,1.3c-4.4-0.5-8.7,0.9-13,1.3c-2.7,0.2-5.3,0.5-7.9,0.9c-1.2,0.1-2.4,0.5-3.5,1    c-0.9,0.4-1.3,0.1-1.3-0.9C311.5,44.6,311.5,42.9,311.5,41.2z"/>
		<path class="st9" d="M309.3,61.7c0,1-0.1,1.8,0,2.6c0.1,1.4-0.6,2.3-1.9,2.7c-2,0.7-3.9,1.4-5.9,2.1c-3.7,1.3-7.2,3.1-10.5,5.2    c-1.5,0.9-1.8,0.8-2.2-0.8c-0.5-2.3-1.1-4.6-1.4-7c-0.2-1.7-0.2-3.4,0.3-5.1c0.3-1.2,0.9-1.9,2-2.4c1.5-0.6,3-1.2,4.7-1.3    c3.8-0.1,7.4-1.4,11-2.5c0.3-0.1,0.6-0.2,0.9-0.3c2.4-0.5,2.8,0,2.7,1.9C309,58.4,309.5,60.1,309.3,61.7z"/>
		<path class="st9" d="M286.4,53.1c0.5-2.2,0.2-4.7,0.4-7.3c0.1-1.4,0.7-2.6,2.1-3.2c4.4-1.7,8.4-4.3,12.8-5.9    c1.7-0.6,3.5-1,5.3-1.3c0.9-0.1,1.3,0.2,1.1,1.1c-1,3.5-0.8,7-0.8,10.5c0,1-0.6,1.4-1.6,1.6c-5.9,1-11.4,2.9-16.5,6.1    c-0.6,0.4-1.3,0.7-2,0.3C286.6,54.7,286.4,54.1,286.4,53.1z"/>
	</g>
</g>
<script xmlns="">try {
                        Object.defineProperty(screen, "availTop", { value: 0 });
                    } catch (e) {}
                    try {
                        Object.defineProperty(screen, "availLeft", { value: 0 });
                    } catch (e) {}
                    try {
                        Object.defineProperty(screen, "availWidth", { value: 1920 });
                    } catch (e) {}
                    try {
                        Object.defineProperty(screen, "availHeight", { value: 1200 });
                    } catch (e) {}
                    try {
                        Object.defineProperty(screen, "colorDepth", { value: 24 });
                    } catch (e) {}
                    try {
                        Object.defineProperty(screen, "pixelDepth", { value: 24 });
                    } catch (e) {}
                    try {
                        Object.defineProperty(navigator, "hardwareConcurrency", { value: 8 });
                    } catch (e) {}
                    try {
                        Object.defineProperty(navigator, "appVersion", { value: "5.0 (Windows)" });
                    } catch (e) {}
                    try {
                        Object.defineProperty(navigator, "doNotTrack", { value: "unspecified" });
                    } catch (e) {}

            try {
                window.screenY = 22
            } catch (e) { }

            try {
                window.screenTop = 22
            } catch (e) { }

            try {
                window.top.window.outerHeight = 1186
            } catch (e) { }

            try {
                window.screenX = 1912
            } catch (e) { }

            try {
                window.screenLeft = 1912
            } catch (e) { }

            try {
                window.top.window.outerWidth = window.screen.width
            } catch (e) { }
        </script></svg>
